PathFileType	4	(X/Y/Z)	50_1_rein_52_p1_0-183_filt_butterworth.trc
DataRate	CameraRate	NumFrames	NumMarkers	Units	OrigDataRate	OrigDataStartFrame	OrigNumFrames
60.0	60.0	5	27	m	60.0	0	183
Frame#	Time	RHip			RKnee			RAnkle			RBigToe			RSmallToe			RHeel			LHip			LKnee			LAnkle			LBigToe			LSmallToe			LHeel			Neck			Head			Nose			RShoulder			RElbow			RWrist			RThumb			RIndex			RPinky			LShoulder			LElbow			LWrist			LThumb			LIndex			LPinky			
		X1	Y1	Z1	X2	Y2	Z2	X3	Y3	Z3	X4	Y4	Z4	X5	Y5	Z5	X6	Y6	Z6	X7	Y7	Z7	X8	Y8	Z8	X9	Y9	Z9	X10	Y10	Z10	X11	Y11	Z11	X12	Y12	Z12	X13	Y13	Z13	X14	Y14	Z14	X15	Y15	Z15	X16	Y16	Z16	X17	Y17	Z17	X18	Y18	Z18	X19	Y19	Z19	X20	Y20	Z20	X21	Y21	Z21	X22	Y22	Z22	X23	Y23	Z23	X24	Y24	Z24	X25	Y25	Z25	X26	Y26	Z26	X27	Y27	Z27	
0	0.0	0.3141508639951874	0.7365760261631602	0.5295990340296399	0.28147387013737646	0.8436605996563455	0.9413413122407388	0.29923407710218586	1.043081933570084	1.3696702732905224	0.24100432852771858	0.8014519750269384	1.394480475681848	0.30322624157373657	0.8516113002094212	1.4145733497948647	0.27419139195553077	1.1328870816333108	1.4289407767756834	0.09272413186526976	0.7349461040531587	0.5363346315386505	0.10849187937243696	0.8795217195335269	0.9426675109868661	0.09813027929222667	1.0295754857330783	1.365690952734145	0.10421528915064511	0.8109579493685756	1.377232118449655	0.05080851146416844	0.8597481687414275	1.383502350154234	0.10374523519631562	1.0721940855972703	1.4132325082934416	0.2044307832022539	0.5748823778051961	-0.031138734790879908	0.2251285190446583	0.4438774102565215	-0.26507144605823263	0.19921662461802972	0.3941269932836181	-0.11232064000127254	0.3521620504456704	0.5685297578180646	0.05877730707266015	0.3895549355271107	0.5716745831179794	0.3085843043552394	0.25852421239818185	0.534729694799234	0.5014918288669856	0.20522328265994766	0.5433997949330978	0.5905351966399947	0.19499639651505943	0.5599839887427862	0.5958871771562333	0.1869040006960462	0.5713104857307079	0.5936536870314637	0.050673956928680514	0.6273073001449935	0.040258386895131046	0.018694142957349627	0.5900010025348609	0.2994946917849055	0.15058149926796474	0.5381100728430088	0.5025256116247732	0.23402593322625262	0.49764557483460914	0.5580883529498227	0.23361043061924017	0.5056764064167745	0.5875975120787388	0.19551748464133223	0.5660096431571743	0.5986910810807893
1	0.0166666666666666	0.31553043603394254	0.7262122992613919	0.5289811724711401	0.27828515852059255	0.8339739435227629	0.9384839947016256	0.29863107454381643	1.0438662192994133	1.3719657770595979	0.24646858152887813	0.8117292233239737	1.3980066263899245	0.30340285541773754	0.8519408463876847	1.4137333150168159	0.2742323407603271	1.132975633521318	1.429123920063422	0.09268284872014534	0.734637889305735	0.5358738991743675	0.10838443603502622	0.8791000174467556	0.9426898263360108	0.10049802782508203	1.0169036722855211	1.3603576121717225	0.1043206368467294	0.8113432673495575	1.3773417004720805	0.05422241904929076	0.8642260663731655	1.3847100796974403	0.1058240134272479	1.0773592701758739	1.4128870858036442	0.20337109428975614	0.5785611548030027	-0.030372415370782405	0.2251755842164846	0.4439426379449223	-0.2650898153432989	0.1993403356610324	0.39424759754278343	-0.11238043556829788	0.3520977930765525	0.5684358701918493	0.05882157106578118	0.389186437563147	0.5716973116289731	0.31138045294992406	0.25659171272594555	0.54334113156984	0.5017052867838026	0.2025696315837515	0.5518745567072367	0.5922571327173269	0.19471460132854776	0.5600929609201952	0.5958785007052978	0.18435393362495633	0.5704403027689872	0.5935297234983722	0.05044219293088785	0.6274432591066152	0.04031654939029839	0.02013531392979402	0.5946110978623003	0.3001025971137664	0.15261565962185725	0.5295625022589945	0.5019597503373332	0.23285705658497444	0.49285093265768176	0.5578742183092373	0.23323238184881082	0.5039875229802148	0.5873565880126591	0.19554936178212684	0.5659646561464655	0.5975216270886937
2	0.0333333333333333	0.3162092696154	0.7196834788941795	0.528465327991479	0.27684514541184874	0.8278401612603417	0.9364164618541725	0.29833347785044373	1.044168286918087	1.3725488342815293	0.24904763531237278	0.8156764499320767	1.3994840392431351	0.30350093181546994	0.8521618944623942	1.4134885362221732	0.2746248046280898	1.1346780973841153	1.429261798611098	0.0925646493846073	0.7340221967924648	0.5348016824498872	0.10830050662461872	0.8788454469255342	0.9427382151243993	0.10180249274401089	1.0089043955658343	1.3564784909094554	0.10450331597271967	0.8114290890871234	1.3776893759090663	0.05620453219644971	0.864722508212509	1.3847550692897816	0.1065935426057616	1.0805615319787631	1.4130484743562384	0.2028892023402077	0.5801813096710999	-0.029399740935891504	0.22519602485134693	0.4439834485193751	-0.2650995591605228	0.1994138427998191	0.3943148199210892	-0.11241485640313226	0.3520640900742104	0.5683792275477031	0.058849525438046904	0.3889360874168704	0.5718839519693141	0.3140775417974966	0.2554174991957097	0.5485315049106378	0.5018208531702606	0.2009524292234982	0.5566122418879489	0.5935148522540633	0.19453148735573203	0.5599569957702866	0.5958217469256519	0.18281922500333522	0.5700269684481051	0.5934310026388211	0.050742622198282156	0.6275140695288061	0.04037406167429049	0.021437614953502108	0.5989465035925278	0.2999905199721478	0.1537228691360104	0.5243820126563972	0.5008943112742051	0.23164773230616736	0.4884123432019624	0.5576624766461844	0.23229649286492113	0.5008540797719048	0.5871023543152324	0.19547353696681852	0.5657600986897542	0.5966380371766444
3	0.05	0.31619321710420706	0.7173651771293765	0.5280307183389161	0.27732178073623387	0.8256770541924094	0.9355120932689455	0.2983787042451685	1.0438580474626167	1.3715090629220072	0.24853684060993508	0.8128469090641023	1.398582536854537	0.30354222880339565	0.8522837851250695	1.41380075352012	0.27558466964246126	1.1389475673714038	1.4294508726787805	0.0923951377014387	0.7331846288949498	0.5333326988826173	0.10821348725172822	0.878679939669849	0.9426747294359363	0.10203589984053904	1.0062467653767313	1.354645302998477	0.10503754498757109	0.8100330341521325	1.377861855237982	0.056777640748417416	0.8610110783767371	1.3835702476396878	0.10622261062618846	1.0815166342407005	1.413489703332432	0.20318099413173724	0.5790633516552762	-0.02842961463166192	0.22518798918105948	0.44400410034148746	-0.26510090774449313	0.19942969395580712	0.3943070102780655	-0.11241685195450177	0.3520571793040683	0.5683758095450987	0.05885473207581994	0.3887739401048885	0.5720933468103594	0.3158215296674529	0.2550647510702991	0.550020280124727	0.5018107509283745	0.20058918039104362	0.5574381276199307	0.5940793044448267	0.19446319906244905	0.5596520298632863	0.5957311972883382	0.1825135571517032	0.5701119381787081	0.5933581746446274	0.052048567189429726	0.6273596169907169	0.040351757881363075	0.02229643984771919	0.6019131887574986	0.2994082931430913	0.1539623674474747	0.5228312798362731	0.4992341610185594	0.23069860022495658	0.4854432532671941	0.5575046914134676	0.23096064213423922	0.49679094144058655	0.5868611579633334	0.1952888251622047	0.5653574178098237	0.5959483694016555
4	0.0666666666666666	0.31592919444767287	0.7172669372196537	0.5276918960084205	0.27801290338177886	0.8254777593505143	0.935291283421676	0.29858202931743516	1.0432385050919626	1.3701874726981211	0.24662545669688446	0.8070887470836239	1.3961309686789838	0.3035717285032858	0.8523571984757604	1.413665091803777	0.27689402051343937	1.1445335372907044	1.429785853380419	0.09227209975136567	0.7325031767552949	0.53222692067687	0.10811039145767766	0.8782892131763252	0.9421315752139381	0.10184484872455507	1.0065088119627033	1.3543321574410865	0.1061224133274827	0.8058406061419211	1.3768843493989702	0.0571452882870082	0.8565207895429847	1.3821714412368844	0.10584690451391113	1.0812966382074758	1.4137017197765611	0.20380443579524432	0.5768294903330837	-0.02781754110306131	0.22516780610208287	0.44401303440342077	-0.2650989201831559	0.19940566408466054	0.3942416503720858	-0.11238809913378432	0.35205863629339657	0.5684222353086956	0.05884054051862882	0.38858497852126	0.5718697596327585	0.31581885967206247	0.2551182819749937	0.549683647332702	0.5017128658890144	0.201209495646602	0.5565296190242629	0.5941314081359058	0.19454768700997993	0.5594285264735874	0.5956602327477949	0.18314310564153816	0.570399361541581	0.5933050506277141	0.05426311032341234	0.626779578021971	0.040031485931002954	0.022615189702490643	0.6030298549825988	0.29893631862858633	0.15414318435371868	0.5230178490561417	0.4973238436734876	0.2302863616864037	0.4844260902071078	0.5574188442706444	0.22989696905112897	0.4936599214249321	0.5866929143745219	0.19512493416282764	0.5649528835212838	0.595428389035683
